<?xml version="1.0" standalone="no"?>
<!DOCTYPE svg PUBLIC "-//W3C//DTD SVG 20010904//EN"
 "http://www.w3.org/TR/2001/REC-SVG-20010904/DTD/svg10.dtd">
<svg version="1.0" xmlns="http://www.w3.org/2000/svg"
 width="512.000000pt" height="512.000000pt" viewBox="0 0 512.000000 512.000000"
 preserveAspectRatio="xMidYMid meet">
<metadata>
Created by potrace 1.14, written by Peter Selinger 2001-2017
</metadata>
<g transform="translate(0.000000,512.000000) scale(0.100000,-0.100000)"
fill="#000000" stroke="none">
<path d="M2300 4785 c-172 -23 -290 -49 -430 -95 -562 -183 -1026 -578 -1299
-1103 -66 -126 -74 -164 -40 -198 l21 -21 -28 -84 -29 -84 -61 0 c-81 0 -109
-20 -109 -80 0 -32 6 -47 23 -60 l23 -19 -16 -91 c-25 -146 -30 -204 -30 -380
0 -182 7 -275 29 -395 60 -328 165 -586 351 -865 201 -300 480 -553 805 -727
194 -104 464 -198 660 -228 25 -4 54 -9 65 -11 93 -19 422 -25 568 -11 194 19
432 81 626 164 645 275 1132 840 1300 1510 48 190 65 326 65 533 1 201 -4 271
-29 408 l-17 89 27 29 c22 23 26 35 21 63 -8 52 -27 65 -104 69 l-67 4 -30 86
-30 87 22 22 c13 12 23 34 23 47 0 25 -101 231 -140 286 -11 15 -20 31 -20 34
0 4 -5 12 -10 19 -6 7 -37 49 -70 94 -224 310 -548 572 -898 728 -163 72 -384
140 -517 160 -57 8 -96 14 -130 21 -62 12 -431 11 -525 -1z"/>
</g>
</svg>
